<svg width="175" height="96" viewBox="0 0 175 96" fill="none" xmlns="http://www.w3.org/2000/svg">
<path d="M50.0178 42.0117V54.7057H48.1201V49.3115H38.9621V54.7057H37.0645V42.0117H38.9621V47.4059H48.1201V42.0117H50.0178Z" fill="white"/>
<path d="M63.6368 43.9149H53.9338V47.4056H61.7369V49.3091H53.9338V52.7998H63.6368V54.7032H52.0361V42.0093H63.6368V43.9127V43.9149Z" fill="white"/>
<path d="M77.4856 42.0117H79.7532V54.7057H77.8555V44.5518L72.5826 50.8461L67.3098 44.5518V54.7057H65.4121V42.0117H67.6622L72.5826 47.8823L77.4856 42.0117Z" fill="white"/>
<path d="M93.7942 42.0117H96.0618V54.7057H94.1641V44.5518L88.8912 50.8461L83.6184 44.5518V54.7057H81.7207V42.0117H83.9708L88.8912 47.8823L93.7942 42.0117Z" fill="white"/>
<path d="M98.0449 42.0117H99.9426V54.7057H98.0449V42.0117Z" fill="white"/>
<path d="M113.528 43.9149H103.825V47.4056H111.629V49.3091H103.825V52.7998H113.528V54.7032H101.928V42.0093H113.528V43.9127V43.9149Z" fill="white"/>
<path d="M117.639 43.9152C117.429 43.9152 117.251 44.0908 117.251 44.3037V52.4137C117.251 52.6244 117.426 52.8022 117.639 52.8022H127.974V54.7057H117.639C116.373 54.7057 115.354 53.6826 115.354 52.4137V44.3037C115.354 43.0348 116.373 42.0117 117.639 42.0117H127.974V43.9152H117.639Z" fill="white"/>
<path d="M140.136 42.0117C141.401 42.0117 142.421 43.0348 142.421 44.3037V52.4137C142.421 53.6826 141.401 54.7057 140.136 54.7057H132.051C130.786 54.7057 129.766 53.6826 129.766 52.4137V44.3037C129.766 43.0348 130.786 42.0117 132.051 42.0117H140.136ZM140.136 52.8C140.346 52.8 140.524 52.6244 140.524 52.4115V44.3016C140.524 44.0908 140.348 43.913 140.136 43.913H132.051C131.841 43.913 131.663 44.0886 131.663 44.3016V52.4115C131.663 52.6222 131.838 52.8 132.051 52.8H140.136Z" fill="white"/>
<path d="M156.424 42.0117H158.692V54.7057H156.794V44.5518L151.521 50.8461L146.248 44.5518V54.7057H144.351V42.0117H146.601L151.521 47.8823L156.424 42.0117Z" fill="white"/>
<path d="M172.734 42.0117H175.001V54.7057H173.104V44.5518L167.831 50.8461L162.558 44.5518V54.7057H160.66V42.0117H162.91L167.831 47.8823L172.734 42.0117Z" fill="white"/>
<path d="M42.4956 95.6066C42.4956 95.6066 42.4781 95.6066 42.4715 95.6066C38.3062 95.5934 34.918 92.1751 34.918 87.9863C34.918 85.8721 35.7847 83.8786 37.306 82.456V81.1585C37.306 80.1771 37.3081 78.816 37.3103 77.3779C37.3147 75.1628 37.3191 72.7588 37.3147 71.2461V70.4097H47.6612V72.0628C47.6612 73.4767 47.6612 74.6007 47.6568 75.7994C47.6524 77.5097 47.6459 79.3714 47.6481 82.4296C49.1934 83.861 50.0689 85.8764 50.0623 88.0192C50.0492 92.2081 46.6565 95.6044 42.4956 95.6044V95.6066ZM38.9782 72.076C38.9782 73.5601 38.9782 75.536 38.9716 77.3801C38.9694 78.8182 38.9673 80.1771 38.9673 81.1585V83.22L38.6696 83.4703C37.341 84.5877 36.5793 86.2321 36.5771 87.9863C36.5771 91.2574 39.2233 93.9293 42.4759 93.9402C45.7307 93.9315 48.3901 91.2926 48.401 88.0148C48.4076 86.2365 47.6371 84.5724 46.2888 83.4483L45.9889 83.198V82.8072C45.9868 79.5185 45.9911 77.5755 45.9977 75.7929C46.0021 74.6007 46.0043 73.4789 46.0043 72.0738H38.9804L38.9782 72.076Z" fill="white"/>
<path d="M47.7108 25.5282H37.3621V24.6918C37.3687 23.1659 37.3621 20.729 37.3621 18.4963C37.3599 17.0802 37.3577 15.7454 37.3577 14.7772V13.4797C35.8343 12.0571 34.9697 10.0636 34.9697 7.94944C34.9654 3.76496 38.3558 0.346678 42.5211 0.333506C46.6886 0.326919 50.0988 3.72324 50.1119 7.9187C50.1185 10.0614 49.2429 12.0768 47.6976 13.5083C47.6976 16.5665 47.6998 18.426 47.7064 20.1384C47.7108 21.3372 47.713 22.4634 47.713 23.8751V25.5282H47.7108ZM39.0278 23.8619H46.0516C46.0516 22.4568 46.0473 21.3372 46.0451 20.1428C46.0407 18.3602 46.0341 16.4172 46.0363 13.1285V12.7377L46.3362 12.4874C47.6845 11.3633 48.455 9.6992 48.4506 7.9209C48.4396 4.64971 45.7934 1.99544 42.5452 1.99544C42.5386 1.99544 42.5321 1.99544 42.5255 1.99544C39.2729 2.00642 36.6267 4.67606 36.6267 7.94944C36.6267 9.70359 37.3884 11.348 38.7192 12.4654L39.0168 12.7157V14.7772C39.0168 15.7454 39.019 17.078 39.0212 18.4919C39.0256 20.3536 39.0278 22.358 39.0278 23.8597V23.8619Z" fill="white"/>
<path d="M19.8931 42.1963L19.1927 41.744C17.9144 40.9185 15.8679 39.6123 13.9921 38.4136C12.7992 37.6517 11.6763 36.9338 10.8621 36.4113L9.77204 35.7132C7.75834 36.2335 5.6155 35.891 3.84038 34.7538C0.320784 32.4969 -0.723277 27.7921 1.50712 24.264C3.74408 20.7316 8.43687 19.6866 11.9674 21.9369C13.771 23.0851 14.9923 24.9095 15.3623 26.9886C17.9253 28.6351 19.4903 29.6319 20.9284 30.5495C21.9396 31.1928 22.8874 31.7987 24.0781 32.5605L25.4658 33.4519L19.8909 42.1963H19.8931ZM10.0238 33.8976L11.7551 35.0085C12.5693 35.531 13.6922 36.2467 14.8829 37.0085C16.4479 38.0074 18.1311 39.0832 19.3897 39.8911L23.1741 33.9546C21.9921 33.1972 21.0466 32.5935 20.0397 31.9524C18.5426 30.9974 16.9076 29.9568 14.1518 28.1851L13.8235 27.9743L13.7754 27.5857C13.5587 25.8404 12.5759 24.2926 11.0788 23.3398C8.32087 21.5834 4.65462 22.3979 2.91014 25.1554C1.16785 27.9106 1.98428 31.5836 4.73342 33.3465C6.20648 34.2905 7.99911 34.5342 9.65385 34.0117L10.0238 33.8954V33.8976Z" fill="white"/>
<path d="M7.90704 75.1056C5.39867 75.1056 2.94502 73.863 1.50916 71.5907C-0.723421 68.0626 0.322829 63.3578 3.84024 61.1031C5.61536 59.9637 7.75601 59.6212 9.7719 60.1437L10.8619 59.4456C11.6762 58.9231 12.799 58.2052 13.9919 57.4434C15.8677 56.2447 17.9143 54.9384 19.1925 54.1129L19.8929 53.6606L25.4678 62.405L24.0801 63.2964C22.8916 64.0582 21.9417 64.6641 20.9304 65.3074C19.4924 66.2229 17.9274 67.2196 15.3643 68.8684C14.9944 70.9452 13.773 72.7718 11.9695 73.92C10.7087 74.7236 9.29912 75.1056 7.90704 75.1056ZM7.90704 61.573C6.7995 61.573 5.69853 61.8913 4.73546 62.5082C1.98632 64.2711 1.16771 67.9441 2.91219 70.6994C4.65666 73.4568 8.32072 74.2713 11.0808 72.515C12.5779 71.5622 13.5607 70.0144 13.7774 68.269L13.8256 67.8804L14.1539 67.6697C16.9096 65.898 18.5446 64.8573 20.0418 63.9023C21.0486 63.2612 21.9942 62.6597 23.1761 61.9001L19.3917 55.9636C18.1331 56.7716 16.4499 57.8473 14.885 58.8462C13.6942 59.6081 12.5714 60.3238 11.7571 60.8463L10.0258 61.9572L9.65589 61.8408C9.08462 61.6608 8.49364 61.5708 7.90704 61.5708V61.573Z" fill="white"/>
<path d="M58.6435 37.4275V28.7094L42.5602 19.6445L17.2051 34.3078V61.7901L42.5602 76.3217L58.6435 67.0218V58.1347L42.5602 67.338L25.0782 57.8603L25.0979 37.4604L42.5602 28.1211L58.6435 37.4275Z" fill="url(#paint0_linear_249_3479)"/>
<defs>
<linearGradient id="paint0_linear_249_3479" x1="17.2051" y1="47.9831" x2="58.6435" y2="47.9831" gradientUnits="userSpaceOnUse">
<stop stop-color="#EA5B9B"/>
<stop offset="0.13" stop-color="#E05BA0"/>
<stop offset="0.36" stop-color="#C75CB0"/>
<stop offset="0.65" stop-color="#9D5DC9"/>
<stop offset="0.98" stop-color="#645EEC"/>
<stop offset="0.99" stop-color="#625FEE"/>
</linearGradient>
</defs>
</svg>
