<svg width="222" height="122" viewBox="0 0 222 122" fill="none" xmlns="http://www.w3.org/2000/svg">
<path d="M62.9562 53.1475V69.2329H60.5515V62.3976H48.9467V69.2329H46.542V53.1475H48.9467V59.9828H60.5515V53.1475H62.9562Z" fill="white"/>
<path d="M80.2138 55.5593H67.9184V59.9827H77.8063V62.3947H67.9184V66.818H80.2138V69.23H65.5137V53.1445H80.2138V55.5565V55.5593Z" fill="white"/>
<path d="M97.7621 53.1475H100.636V69.2329H98.2308V56.3662L91.5492 64.3422L84.8676 56.3662V69.2329H82.4629V53.1475H85.3142L91.5492 60.5865L97.7621 53.1475Z" fill="white"/>
<path d="M118.428 53.1475H121.302V69.2329H118.897V56.3662L112.215 64.3422L105.534 56.3662V69.2329H103.129V53.1475H105.98L112.215 60.5865L118.428 53.1475Z" fill="white"/>
<path d="M123.814 53.1475H126.219V69.2329H123.814V53.1475Z" fill="white"/>
<path d="M143.434 55.5593H131.139V59.9827H141.027V62.3947H131.139V66.818H143.434V69.23H128.734V53.1445H143.434V55.5565V55.5593Z" fill="white"/>
<path d="M148.644 55.5594C148.377 55.5594 148.153 55.782 148.153 56.0519V66.3285C148.153 66.5956 148.375 66.8209 148.644 66.8209H161.741V69.2329H148.644C147.041 69.2329 145.748 67.9365 145.748 66.3285V56.0519C145.748 54.4439 147.041 53.1475 148.644 53.1475H161.741V55.5594H148.644Z" fill="white"/>
<path d="M177.151 53.1475C178.754 53.1475 180.047 54.4439 180.047 56.0519V66.3285C180.047 67.9365 178.754 69.2329 177.151 69.2329H166.905C165.302 69.2329 164.01 67.9365 164.01 66.3285V56.0519C164.01 54.4439 165.302 53.1475 166.905 53.1475H177.151ZM177.151 66.8182C177.417 66.8182 177.642 66.5956 177.642 66.3258V56.0491C177.642 55.782 177.42 55.5567 177.151 55.5567H166.905C166.639 55.5567 166.414 55.7792 166.414 56.0491V66.3258C166.414 66.5928 166.636 66.8182 166.905 66.8182H177.151Z" fill="white"/>
<path d="M197.791 53.1475H200.665V69.2329H198.26V56.3662L191.579 64.3422L184.897 56.3662V69.2329H182.492V53.1475H185.343L191.579 60.5865L197.791 53.1475Z" fill="white"/>
<path d="M218.458 53.1475H221.332V69.2329H218.927V56.3662L212.245 64.3422L205.564 56.3662V69.2329H203.159V53.1475H206.01L212.245 60.5865L218.458 53.1475Z" fill="white"/>
<path d="M53.4245 121.061C53.4245 121.061 53.4023 121.061 53.394 121.061C48.1158 121.045 43.8223 116.713 43.8223 111.405C43.8223 108.726 44.9206 106.2 46.8483 104.397V102.753C46.8483 101.509 46.851 99.7846 46.8538 97.9624C46.8594 95.1553 46.8649 92.1091 46.8594 90.1923V89.1323H59.9702V91.2272C59.9702 93.0188 59.9702 94.4431 59.9646 95.9621C59.9591 98.1293 59.9508 100.488 59.9535 104.364C61.9117 106.178 63.0211 108.731 63.0128 111.447C62.9962 116.755 58.6971 121.058 53.4245 121.058V121.061ZM48.9673 91.2439C48.9673 93.1245 48.9673 95.6283 48.959 97.9651C48.9562 99.7874 48.9534 101.509 48.9534 102.753V105.365L48.5762 105.682C46.8926 107.098 45.9274 109.182 45.9247 111.405C45.9247 115.55 49.2779 118.936 53.3995 118.95C57.5239 118.939 60.8938 115.595 60.9076 111.441C60.916 109.188 59.9397 107.079 58.2311 105.655L57.8511 105.337V104.842C57.8484 100.675 57.8539 98.2127 57.8622 95.9538C57.8678 94.4431 57.8706 93.0215 57.8706 91.2411H48.9701L48.9673 91.2439Z" fill="white"/>
<path d="M60.0338 32.2601H46.9202V31.2002C46.9285 29.2667 46.9202 26.1787 46.9202 23.3494C46.9174 21.555 46.9147 19.8636 46.9147 18.6367V16.9926C44.9842 15.1898 43.8887 12.6638 43.8887 9.98472C43.8831 4.68225 48.1794 0.350688 53.4576 0.333996C58.7385 0.325651 63.0598 4.62939 63.0764 9.94577C63.0848 12.661 61.9753 15.2149 60.0172 17.0287C60.0172 20.904 60.0199 23.2604 60.0283 25.4303C60.0338 26.9493 60.0366 28.3765 60.0366 30.1653V32.2601H60.0338ZM49.0309 30.1486H57.9314C57.9314 28.3681 57.9259 26.9493 57.9231 25.4359C57.9175 23.1769 57.9092 20.7149 57.912 16.5474V16.0522L58.292 15.7351C60.0005 14.3107 60.9768 12.202 60.9713 9.94856C60.9574 5.80339 57.6041 2.43996 53.4881 2.43996C53.4798 2.43996 53.4715 2.43996 53.4631 2.43996C49.3416 2.45387 45.9883 5.83677 45.9883 9.98472C45.9883 12.2075 46.9535 14.2912 48.6399 15.7073L49.0171 16.0244V18.6367C49.0171 19.8636 49.0198 21.5522 49.0226 23.3438C49.0282 25.703 49.0309 28.2429 49.0309 30.1458V30.1486Z" fill="white"/>
<path d="M24.7838 53.3813L23.8963 52.8082C22.2765 51.7622 19.6832 50.1069 17.3062 48.5879C15.7946 47.6226 14.3717 46.7128 13.34 46.0507L11.9587 45.1661C9.40699 45.8254 6.69164 45.3914 4.44225 43.9503C-0.0177042 41.0904 -1.34071 35.1286 1.48559 30.658C4.32021 26.1818 10.2668 24.8575 14.7406 27.7091C17.0261 29.164 18.5737 31.4759 19.0425 34.1104C22.2904 36.1969 24.2735 37.4599 26.0957 38.6228C27.3771 39.4379 28.5781 40.2058 30.087 41.1711L31.8454 42.3006L24.7811 53.3813H24.7838ZM12.2777 42.8654L14.4716 44.273C15.5034 44.9352 16.9262 45.8421 18.4351 46.8074C20.4182 48.0732 22.5511 49.4364 24.1459 50.4602L28.9415 42.9377C27.4437 41.9779 26.2455 41.2129 24.9697 40.4005C23.0725 39.1903 21.0006 37.8717 17.5087 35.6266L17.0926 35.3595L17.0316 34.8671C16.757 32.6554 15.5117 30.6941 13.6145 29.4868C10.1198 27.2612 5.47403 28.2933 3.26347 31.7875C1.05568 35.2789 2.09023 39.9331 5.57387 42.1671C7.44051 43.3633 9.71209 43.6721 11.8089 43.01L12.2777 42.8626V42.8654Z" fill="white"/>
<path d="M9.59515 95.0832C6.4166 95.0832 3.3074 93.5086 1.48792 90.6292C-1.34116 86.1586 -0.0153739 80.1967 4.4418 77.3396C6.69119 75.8958 9.40377 75.4618 11.9583 76.1239L13.3395 75.2392C14.3713 74.5771 15.7941 73.6674 17.3058 72.7021C19.6827 71.1831 22.2761 69.5278 23.8958 68.4818L24.7834 67.9087L31.8477 78.9894L30.0893 80.1189C28.5832 81.0842 27.3795 81.852 26.0981 82.6672C24.2758 83.8272 22.2927 85.0903 19.0448 87.1795C18.5761 89.8113 17.0284 92.1259 14.743 93.5809C13.1454 94.5991 11.3592 95.0832 9.59515 95.0832ZM9.59515 77.935C8.19171 77.935 6.79659 78.3384 5.5762 79.1201C2.09256 81.3541 1.05524 86.0083 3.2658 89.4997C5.47635 92.9939 10.1194 94.026 13.6169 91.8004C15.514 90.593 16.7594 88.6317 17.0339 86.4201L17.095 85.9277L17.511 85.6606C21.003 83.4155 23.0748 82.0968 24.972 80.8867C26.2478 80.0743 27.446 79.3121 28.9438 78.3495L24.1482 70.827C22.5534 71.8508 20.4205 73.2139 18.4374 74.4798C16.9286 75.4451 15.5057 76.352 14.4739 77.0142L12.28 78.4218L11.8113 78.2744C11.0873 78.0463 10.3385 77.9322 9.59515 77.9322V77.935Z" fill="white"/>
<path d="M73.8877 47.3383V36.291L53.5073 24.8042L21.3779 43.3851V78.2101L53.5073 96.6241L73.8877 84.8396V73.5781L53.5073 85.2402L31.3546 73.2303L31.3795 47.3801L53.5073 35.5455L73.8877 47.3383Z" fill="url(#paint0_linear_249_3293)"/>
<defs>
<linearGradient id="paint0_linear_249_3293" x1="21.3779" y1="60.7141" x2="73.8877" y2="60.7141" gradientUnits="userSpaceOnUse">
<stop stop-color="#EA5B9B"/>
<stop offset="0.13" stop-color="#E05BA0"/>
<stop offset="0.36" stop-color="#C75CB0"/>
<stop offset="0.65" stop-color="#9D5DC9"/>
<stop offset="0.98" stop-color="#645EEC"/>
<stop offset="0.99" stop-color="#625FEE"/>
</linearGradient>
</defs>
</svg>
