<svg width="22" height="22" viewBox="0 0 22 22" fill="none" xmlns="http://www.w3.org/2000/svg">
<path d="M2.66667 0C1.19391 0 0 1.19391 0 2.66667V6.66667C0 8.13947 1.19391 9.33333 2.66667 9.33333H6.66667C8.13947 9.33333 9.33333 8.13947 9.33333 6.66667V2.66667C9.33333 1.19391 8.13947 0 6.66667 0H2.66667ZM14.6667 0C13.1939 0 12 1.19391 12 2.66667V6.66667C12 8.13947 13.1939 9.33333 14.6667 9.33333H18.6667C20.1395 9.33333 21.3333 8.13947 21.3333 6.66667V2.66667C21.3333 1.19391 20.1395 0 18.6667 0H14.6667ZM0 14.6667C0 13.1939 1.19391 12 2.66667 12H6.66667C8.13947 12 9.33333 13.1939 9.33333 14.6667V18.6667C9.33333 20.1395 8.13947 21.3333 6.66667 21.3333H2.66667C1.19391 21.3333 0 20.1395 0 18.6667V14.6667ZM14.6667 12C13.1939 12 12 13.1939 12 14.6667V18.6667C12 20.1395 13.1939 21.3333 14.6667 21.3333H18.6667C20.1395 21.3333 21.3333 20.1395 21.3333 18.6667V14.6667C21.3333 13.1939 20.1395 12 18.6667 12H14.6667Z" fill="white"/>
</svg>
